<svg width="145" height="44" viewBox="0 0 145 44" fill="none" xmlns="http://www.w3.org/2000/svg">
<g clip-path="url(#clip0_923_925)">
<path d="M55.5146 6.5136H61.8372C63.1825 6.48558 64.516 6.77132 65.7322 7.34824C66.8161 7.8478 67.7296 8.65543 68.359 9.67072C69.0204 10.7621 69.3478 12.0238 69.301 13.2996C69.3532 14.576 69.0254 15.8392 68.359 16.9285C67.7357 17.9533 66.821 18.7683 65.7322 19.2691C64.5119 19.8317 63.1803 20.1109 61.8372 20.0856H55.5146V6.5136ZM61.6742 16.8922C62.6904 16.9407 63.6852 16.589 64.4459 15.9124C65.1257 15.1695 65.5029 14.1984 65.5029 13.1907C65.5029 12.183 65.1257 11.2119 64.4459 10.4691C63.6852 9.79244 62.6904 9.44077 61.6742 9.48927H59.301V16.747L61.6742 16.8922Z" fill="white"/>
<path d="M75.4787 6.51367H71.6924V19.9042H75.4787V6.51367Z" fill="white"/>
<path d="M87.5987 12.9361H90.9502V18.4701C90.1504 19.0468 89.2549 19.4768 88.3052 19.7402C87.3407 20.0269 86.3402 20.1735 85.3342 20.1757C84.0179 20.2 82.7163 19.8944 81.5479 19.2866C80.4617 18.7226 79.5525 17.8685 78.921 16.819C78.285 15.7157 77.9502 14.4641 77.9502 13.1901C77.9502 11.9161 78.285 10.6646 78.921 9.56128C79.5545 8.50681 80.471 7.65179 81.566 7.09365C82.7538 6.48569 84.0729 6.18032 85.4066 6.20458C86.5596 6.18344 87.7052 6.39318 88.7762 6.82148C89.7285 7.23291 90.5766 7.85292 91.2581 8.63591L88.8487 10.8314C88.4486 10.3623 87.9512 9.9862 87.3912 9.72925C86.8311 9.4723 86.2219 9.34068 85.6059 9.34355C85.098 9.31872 84.5904 9.3976 84.1139 9.5754C83.6374 9.75319 83.202 10.0262 82.8342 10.3778C82.4735 10.7402 82.1935 11.1748 82.0124 11.6533C81.8313 12.1317 81.7532 12.6431 81.7834 13.1539C81.7631 13.8432 81.9256 14.5256 82.2544 15.1316C82.5651 15.7021 83.0296 16.1737 83.595 16.4924C84.1926 16.8257 84.8677 16.9947 85.5516 16.9823C86.2576 16.9891 86.9564 16.8404 87.5987 16.5468V12.9361Z" fill="white"/>
<path d="M97.6173 6.51367H93.8311V19.9042H97.6173V6.51367Z" fill="white"/>
<path d="M103.632 9.50749H99.5195V6.51367H111.494V9.50749H107.4V19.9042H103.632V9.50749Z" fill="white"/>
<path d="M121.675 17.3096H116.023L114.972 19.9042H111.113L117.11 6.51367H120.733L126.657 19.9042H122.726L121.675 17.3096ZM120.57 14.5153L118.921 10.2877L117.11 14.5698L120.57 14.5153Z" fill="white"/>
<path d="M128.197 6.51367H131.984V16.8922H138.36V19.9042H128.197V6.51367Z" fill="white"/>
<path d="M64.5734 37.5049L61.8378 33.5676H61.3306H58.3051V37.5049H55.8232V24.0963H61.2581C62.2948 24.0691 63.3257 24.2608 64.2836 24.6588C65.0895 25.0028 65.7763 25.5771 66.2582 26.3099C66.7283 27.072 66.9675 27.9545 66.9466 28.8501C66.9761 29.7772 66.7165 30.6904 66.2039 31.4629C65.689 32.2078 64.9541 32.7725 64.1023 33.0777L67.1821 37.4868L64.5734 37.5049ZM63.6857 26.9087C62.9698 26.3981 62.0983 26.1542 61.2219 26.2192H58.3051V31.5536H61.2219C62.1005 31.6133 62.9722 31.3629 63.6857 30.846C63.9654 30.6013 64.1858 30.2961 64.3302 29.9534C64.4746 29.6107 64.5391 29.2396 64.519 28.8682C64.539 28.4995 64.4744 28.1311 64.3299 27.7914C64.1854 27.4517 63.965 27.1497 63.6857 26.9087Z" fill="white"/>
<path d="M80.3703 35.382V37.4686H70.334V24.0781H80.0986V26.1647H72.8159V29.6484H79.2653V31.6987H72.8159V35.382H80.3703Z" fill="white"/>
<path d="M95.6428 24.0781L89.8094 37.4686H87.3637L81.5303 24.0781H84.2296L88.668 34.4022L93.1608 24.0781H95.6428Z" fill="white"/>
<path d="M100.008 24.0781H97.5264V37.4686H100.008V24.0781Z" fill="white"/>
<path d="M105.262 37.2317C104.431 37.0022 103.655 36.6073 102.979 36.0705L103.831 34.129C104.443 34.5961 105.129 34.9579 105.86 35.1996C106.629 35.4642 107.438 35.5991 108.251 35.5987C109.024 35.6567 109.797 35.4931 110.48 35.127C110.702 34.9985 110.886 34.8132 111.013 34.59C111.141 34.3669 111.206 34.1139 111.204 33.8569C111.21 33.68 111.178 33.504 111.109 33.341C111.04 33.1781 110.937 33.0321 110.806 32.9134C110.495 32.656 110.138 32.4591 109.755 32.3327C109.338 32.1876 108.759 32.0424 107.943 31.861C107.11 31.663 106.287 31.4207 105.48 31.1352C104.854 30.8873 104.296 30.4958 103.849 29.9921C103.374 29.3975 103.135 28.6478 103.179 27.8874C103.175 27.1717 103.383 26.471 103.777 25.8734C104.229 25.23 104.859 24.732 105.588 24.44C106.529 24.0515 107.542 23.8661 108.559 23.8956C109.372 23.8987 110.181 24.0023 110.969 24.2041C111.694 24.3795 112.386 24.6737 113.016 25.075L112.237 27.0165C111.667 26.6842 111.058 26.4223 110.425 26.2363C109.837 26.0631 109.227 25.9716 108.614 25.9641C107.851 25.9125 107.09 26.0826 106.421 26.454C106.202 26.5974 106.022 26.794 105.899 27.0255C105.775 27.2571 105.712 27.516 105.715 27.7785C105.709 27.9554 105.741 28.1314 105.81 28.2944C105.879 28.4573 105.983 28.6033 106.114 28.722C106.424 28.9766 106.781 29.1677 107.164 29.2845C107.581 29.4297 108.161 29.5929 108.976 29.7744C109.807 29.9525 110.624 30.189 111.422 30.482C112.047 30.7299 112.605 31.1214 113.052 31.6251C113.526 32.2061 113.766 32.9443 113.722 33.6936C113.726 34.4093 113.518 35.11 113.124 35.7076C112.669 36.3481 112.041 36.8454 111.313 37.141C110.368 37.5137 109.357 37.6927 108.342 37.6672C107.329 37.6701 106.322 37.5233 105.353 37.2317" fill="white"/>
<path d="M119.157 36.7786C118.087 36.2126 117.196 35.3578 116.585 34.3109C115.968 33.2373 115.644 32.0204 115.644 30.7818C115.644 29.5433 115.968 28.3264 116.585 27.2528C117.198 26.2126 118.089 25.3643 119.157 24.8033C120.299 24.2188 121.562 23.9141 122.844 23.9141C124.126 23.9141 125.389 24.2188 126.531 24.8033C127.61 25.3854 128.509 26.2535 129.129 27.3127C129.748 28.372 130.066 29.5815 130.045 30.8091C130.068 32.0348 129.752 33.2429 129.132 34.2998C128.511 35.3566 127.611 36.2208 126.531 36.7967C125.389 37.3812 124.126 37.6859 122.844 37.6859C121.562 37.6859 120.299 37.3812 119.157 36.7967V36.7786ZM125.244 34.9823C125.957 34.5952 126.543 34.0089 126.929 33.2948C127.334 32.5517 127.545 31.7189 127.545 30.8726C127.545 30.0263 127.334 29.1935 126.929 28.4503C126.532 27.744 125.95 27.1603 125.244 26.7629C124.505 26.3705 123.681 26.1653 122.844 26.1653C122.007 26.1653 121.183 26.3705 120.444 26.7629C119.738 27.1603 119.156 27.744 118.759 28.4503C118.354 29.1935 118.143 30.0263 118.143 30.8726C118.143 31.7189 118.354 32.5517 118.759 33.2948C119.145 34.0089 119.731 34.5952 120.444 34.9823C121.183 35.3747 122.007 35.5798 122.844 35.5798C123.681 35.5798 124.505 35.3747 125.244 34.9823Z" fill="white"/>
<path d="M141.893 37.5049L139.176 33.5676H138.65H135.643V37.5049H133.161V24.0963H138.596C139.633 24.0691 140.664 24.2608 141.621 24.6588C142.431 24.997 143.119 25.5726 143.596 26.3099C144.074 27.0685 144.314 27.9534 144.284 28.8501C144.311 29.7742 144.059 30.6849 143.56 31.4629C143.038 32.2083 142.297 32.7726 141.44 33.0777L144.52 37.4868L141.893 37.5049ZM141.005 26.9087C140.291 26.3953 139.418 26.1511 138.542 26.2192H135.643V31.5536H138.542C139.421 31.6164 140.293 31.3658 141.005 30.846C141.288 30.604 141.511 30.2992 141.656 29.9559C141.8 29.6125 141.863 29.2401 141.839 28.8682C141.863 28.499 141.8 28.1293 141.656 27.7889C141.511 27.4485 141.288 27.1469 141.005 26.9087Z" fill="white"/>
<path d="M13.8482 35.3997C13.9506 35.5847 14.1001 35.7393 14.2815 35.8476C14.4629 35.956 14.6697 36.0143 14.8808 36.0166C15.2364 35.9508 15.5713 35.8014 15.858 35.5806C16.1446 35.3597 16.3747 35.0739 16.5294 34.7465L18.4678 31.8979C15.4634 28.8315 11.5108 26.8745 7.25391 26.3457L13.8482 35.3997Z" fill="white"/>
<path d="M36.3118 9.36241L21.2754 31.6436C21.5471 31.9884 21.8007 32.315 22.0544 32.6779L24.029 35.3995C24.1517 35.6123 24.3288 35.7885 24.5422 35.9097C24.7556 36.0309 24.9975 36.0928 25.2428 36.089C25.566 36.0198 25.8659 35.8681 26.1134 35.6488C26.361 35.4295 26.5478 35.1499 26.6559 34.837C26.6559 34.837 29.6632 28.668 32.4349 22.136C36.4205 12.7554 37.0908 9.43499 37.1089 8.20117C36.9458 8.40076 36.7103 8.70922 36.3842 9.19912L36.3118 9.36241Z" fill="white"/>
<path d="M36.7829 0H8.0145C6.0028 0.00479153 4.07485 0.807298 2.65235 2.232C1.22986 3.6567 0.428612 5.58764 0.423828 7.60247V36.4157C0.428612 38.4305 1.22986 40.3614 2.65235 41.7861C4.07485 43.2108 6.0028 44.0133 8.0145 44.0181H36.7829C38.7946 44.0133 40.7226 43.2108 42.1451 41.7861C43.5676 40.3614 44.3688 38.4305 44.3736 36.4157V7.60247C44.3641 5.58911 43.5613 3.66093 42.1398 2.23725C40.7184 0.813577 38.7932 0.00954216 36.7829 0ZM34.6996 22.626C31.8554 29.3031 28.7031 35.7625 28.6669 35.8169C28.3975 36.4871 27.9554 37.0736 27.3857 37.5167C26.816 37.9598 26.1391 38.2435 25.4241 38.339H25.1524C24.5648 38.327 23.989 38.1721 23.4746 37.8876C22.9601 37.6031 22.5225 37.1976 22.1994 36.706L20.2248 33.9662L19.953 33.5851L18.3769 35.9258C18.0364 36.5689 17.5422 37.1176 16.9384 37.5228C16.3347 37.9281 15.6401 38.1773 14.9167 38.2482C14.3339 38.2659 13.7563 38.1333 13.2393 37.8632C12.7222 37.5932 12.283 37.1947 11.9638 36.706L5.33329 27.5249C5.08723 27.178 4.94628 26.7673 4.92727 26.3422C4.90826 25.917 5.01204 25.4954 5.22614 25.1277C5.44025 24.7601 5.75563 24.4621 6.13449 24.2694C6.51336 24.0767 6.93967 23.9975 7.36234 24.0412C12.0166 24.5911 16.3595 26.6639 19.7175 29.9381L34.5003 8.00165C35.2793 6.84041 35.9496 6.00577 36.7467 5.76989C37.1023 5.62778 37.4937 5.60215 37.8647 5.69668C38.2358 5.79122 38.5674 6.00105 38.8119 6.29608C39.4641 7.05814 40.6236 8.49155 34.6996 22.626Z" fill="white"/>
</g>
<defs>
<clipPath id="clip0_923_925">
<rect width="144.15" height="44" fill="white" transform="translate(0.423828)"/>
</clipPath>
</defs>
</svg>
